<?xml version="1.0" encoding="UTF-8" standalone="no"?> <!-- Created with Vectornator for iOS (http://vectornator.io/) --><!DOCTYPE svg PUBLIC "-//W3C//DTD SVG 1.1//EN" "http://www.w3.org/Graphics/SVG/1.1/DTD/svg11.dtd">
<svg width="100%" style="fill-rule:nonzero;clip-rule:evenodd;stroke-linecap:round;stroke-linejoin:round;" viewBox="0 0 24 24" xmlns:vectornator="http://vectornator.io" version="1.1" xml:space="preserve" xmlns:xlink="http://www.w3.org/1999/xlink" height="100%" xmlns="http://www.w3.org/2000/svg">
<metadata>
<vectornator:setting value="true" key="VNDimensionsVisible"/>
<vectornator:setting value="false" key="WDIsolateActiveLayer"/>
<vectornator:setting key="WDRulersVisible" value="true"/>
<vectornator:setting key="WDDynamicGuides" value="false"/>
<vectornator:setting value="false" key="WDSnapToEdges"/>
<vectornator:setting key="WDSnapToPoints" value="false"/>
<vectornator:setting key="IsTimeLapseWatermarkDisabled" value="false"/>
<vectornator:setting key="VNSnapToGuides" value="true"/>
<vectornator:setting value="false" key="WDSnapToGrid"/>
<vectornator:setting key="WDGuidesVisible" value="true"/>
<vectornator:setting key="VNPencilOnly" value="false"/>
<vectornator:setting key="WDOutlineMode" value="false"/>
<vectornator:setting value="false" key="WDDisplayWhiteBackground"/>
<vectornator:setting key="UndoHistoryDisabled" value="false"/>
<vectornator:setting value="false" key="WDCMYKEnabledKey"/>
<vectornator:setting key="WDUnits" value="Points"/>
</metadata>
<defs/>
<g vectornator:layerName="Untitled" id="Untitled">
<path stroke-width="2" stroke-linecap="round" fill="none" d="M17+17L17.01+17M17.4+14L18+14C18.9319+14+19.3978+14+19.7654+14.1522C20.2554+14.3552+20.6448+14.7446+20.8478+15.2346C21+15.6022+21+16.0681+21+17C21+17.9319+21+18.3978+20.8478+18.7654C20.6448+19.2554+20.2554+19.6448+19.7654+19.8478C19.3978+20+18.9319+20+18+20L6+20C5.06812+20+4.60218+20+4.23463+19.8478C3.74458+19.6448+3.35523+19.2554+3.15224+18.7654C3+18.3978+3+17.9319+3+17C3+16.0681+3+15.6022+3.15224+15.2346C3.35523+14.7446+3.74458+14.3552+4.23463+14.1522C4.60218+14+5.06812+14+6+14L6.6+14M12+15L12+4M12+15L9+12M12+15L15+12" stroke="#ffffff" opacity="1" stroke-linejoin="round"/>
</g>
</svg>
